<?xml version="1.0" standalone="no"?>
<!DOCTYPE svg PUBLIC "-//W3C//DTD SVG 20010904//EN"
 "http://www.w3.org/TR/2001/REC-SVG-20010904/DTD/svg10.dtd">
<svg version="1.0" xmlns="http://www.w3.org/2000/svg"
 width="1em" height="1em" viewBox="0 0 256.000000 256.000000"
 preserveAspectRatio="xMidYMid meet">

<g transform="translate(0.000000,256.000000) scale(0.100000,-0.100000)"
fill="#fff" stroke="none">
<path d="M1246 2549 c-458 -59 -856 -371 -1025 -804 -62 -157 -84 -281 -84
-465 0 -184 22 -308 84 -465 70 -179 164 -319 306 -456 181 -174 388 -282 643
-336 126 -26 361 -24 499 6 219 46 411 142 579 289 l63 55 -52 53 -52 53 -51
-46 c-182 -165 -435 -267 -692 -280 -583 -29 -1093 393 -1173 971 -65 467 171
929 589 1155 134 71 352 131 481 131 l49 0 0 75 0 75 -47 -1 c-27 -1 -79 -5
-117 -10z"/>
<path d="M659 1953 c-163 -173 -259 -423 -259 -673 0 -556 454 -1010 1010
-1010 430 0 814 277 955 690 25 71 55 233 55 293 l0 27 -115 0 -115 0 0 -47
c-1 -119 -59 -285 -139 -400 -233 -331 -674 -430 -1029 -232 -79 43 -192 144
-246 218 -99 134 -147 286 -147 461 0 203 67 381 195 518 l30 32 -80 80 -80
80 -35 -37z"/>
<path d="M1805 1690 l-28 -29 32 -36 c78 -90 127 -240 117 -365 -10 -136 -61
-247 -155 -340 -286 -280 -764 -144 -866 247 -8 31 -15 72 -15 90 0 32 -1 33
-45 33 -42 0 -45 -2 -45 -27 0 -16 7 -59 15 -98 44 -209 212 -391 420 -455 89
-28 232 -30 324 -6 204 53 378 223 435 426 51 183 11 386 -106 537 -22 29 -44
53 -47 53 -4 0 -20 -13 -36 -30z"/>
</g>
</svg>
